<svg width="32" height="32" viewBox="0 0 32 32" fill="none" xmlns="http://www.w3.org/2000/svg">
<path d="M23.4399 13.0401L11.77 11.5501C11.4107 11.5112 11.0721 11.3628 10.8002 11.1248C10.5282 10.8869 10.3361 10.571 10.2499 10.2201C10.0099 9.12008 10.8499 8.14008 11.9199 8.14008H18.08V5.90008H15.5599C15.117 5.90008 14.6923 5.72413 14.3791 5.41094C14.0659 5.09776 13.89 4.67299 13.89 4.23008C13.89 3.78717 14.0659 3.3624 14.3791 3.04921C14.6923 2.73602 15.117 2.56007 15.5599 2.56007H18.08V0.330078H0.449951V1.76008C0.449951 4.10008 2.18996 6.06008 4.51996 6.36008H0.449951V7.80008C0.449951 10.1301 2.18996 12.1001 4.51996 12.4001H0.449951V13.8401C0.449951 16.1701 2.18995 18.1401 4.50995 18.4401L22.45 20.7701C23.4 20.8901 24.0899 21.7701 23.9299 22.7501C23.7899 23.6001 22.9899 24.1801 22.1299 24.1801H8.26996C7.24397 24.1774 6.22752 24.3773 5.27887 24.7681C4.33022 25.1589 3.46799 25.733 2.74158 26.4576C2.01516 27.1821 1.43883 28.0429 1.04559 28.9905C0.652357 29.9382 0.449948 30.9541 0.449951 31.9801H21.9299C26.9299 31.9801 31.2999 28.2701 31.7299 23.3001C31.9407 20.8492 31.1956 18.4118 29.6505 16.4977C28.1054 14.5836 25.8801 13.3411 23.4399 13.0301" fill="#434F8B"/>
</svg>
