<svg width="99" height="14" viewBox="0 0 99 14" fill="none" xmlns="http://www.w3.org/2000/svg">
<path d="M95.18 11.8899C96.3 11.8899 97.3 11.8499 98.18 11.7899L98.68 11.7299L98.71 13.4999C97.33 13.8399 96.08 13.9999 94.97 13.9999C93.61 13.9999 92.63 13.6399 92.01 12.9299C91.41 12.2099 91.1 11.0499 91.1 9.42992C91.1 6.21992 92.42 4.60992 95.07 4.60992C97.69 4.60992 99 5.95993 99 8.65993L98.82 10.3299H93.52C93.54 10.8799 93.69 11.2799 93.97 11.5299C94.25 11.7699 94.65 11.8899 95.18 11.8899ZM96.61 8.49992C96.61 7.78992 96.5 7.28992 96.27 6.99992C96.05 6.71992 95.65 6.57993 95.07 6.57993C94.51 6.57993 94.11 6.72992 93.87 7.01992C93.64 7.31992 93.52 7.80992 93.51 8.49992H96.61ZM87.22 4.60992C87.85 4.60992 88.65 4.70993 89.62 4.89993L90.11 4.99992L90.03 6.89993C89.09 6.80993 88.38 6.75993 87.93 6.75993C87.1 6.75993 86.55 6.93992 86.28 7.28992C86.01 7.63992 85.88 8.30992 85.88 9.28992C85.88 10.2699 86.01 10.9399 86.28 11.3099C86.55 11.6699 87.11 11.8499 87.94 11.8499L90.04 11.7099L90.11 13.6299C89.1429 13.8401 88.159 13.964 87.17 13.9999C85.84 13.9999 84.88 13.6299 84.3 12.8799C83.72 12.1399 83.43 10.9399 83.43 9.28992C83.43 7.63992 83.73 6.44992 84.33 5.70992C84.93 4.97992 85.89 4.60992 87.23 4.60992H87.22ZM76.59 13.7899H74.17V4.82993H76.57V5.32993C77.2433 4.89558 78.0196 4.64717 78.82 4.60992C80.02 4.60992 80.85 4.96992 81.31 5.66992C81.77 6.36992 82 7.46992 82 8.92992V13.7899H79.58V8.99992C79.58 8.23992 79.49 7.66992 79.31 7.30992C79.13 6.94992 78.77 6.75993 78.23 6.75993C77.73 6.75993 77.26 6.84993 76.8 7.00993L76.59 7.08992V13.7899ZM72.14 11.3499C72.16 11.6399 72.21 11.8399 72.28 11.9499C72.35 12.0599 72.5 12.1499 72.73 12.1899L72.66 13.9999C72.05 13.9999 71.56 13.9599 71.19 13.8799C70.7955 13.783 70.4224 13.6135 70.09 13.3799C69.22 13.7899 68.34 13.9999 67.44 13.9999C65.58 13.9999 64.64 13.0199 64.64 11.0599C64.64 10.1099 64.9 9.42992 65.42 9.02992C65.94 8.62992 66.72 8.38993 67.8 8.32993L69.72 8.17992V7.61993C69.72 7.24993 69.64 6.99992 69.47 6.85992C69.3 6.71992 69.03 6.65993 68.67 6.65993L65.27 6.79993L65.2 5.12992C66.49 4.78992 67.71 4.60992 68.87 4.60992C70.03 4.60992 70.87 4.84993 71.37 5.32993C71.88 5.80993 72.14 6.56992 72.14 7.62992V11.3499ZM68.08 9.98992C67.41 10.0499 67.08 10.4099 67.08 11.0599C67.08 11.7199 67.37 12.0499 67.96 12.0499C68.41 12.0499 68.91 11.9799 69.45 11.8299L69.71 11.7599V9.84992L68.08 9.98992ZM52.82 13.7899H50.41V4.82993H52.8V5.32993C53.4337 4.91317 54.1635 4.66532 54.92 4.60992C55.9 4.60992 56.65 4.88992 57.17 5.44992C58.1001 4.93601 59.1381 4.64825 60.2 4.60992C61.39 4.60992 62.21 4.95992 62.68 5.63992C63.14 6.32992 63.37 7.42993 63.37 8.93993V13.7899H60.96V8.99992C60.96 8.23992 60.87 7.66992 60.7 7.30992C60.54 6.94992 60.2 6.75993 59.7 6.75993C59.31 6.75993 58.84 6.84993 58.3 7.00993L58.02 7.10992C58.07 7.99992 58.09 8.67992 58.09 9.14993V13.7899H55.68V9.18993C55.68 8.28993 55.6 7.66992 55.45 7.30992C55.29 6.94992 54.95 6.75993 54.42 6.75993C53.95 6.75993 53.49 6.84993 53.03 7.00993L52.82 7.08992V13.7899ZM43.98 13.7899V4.82993H46.37V5.77992C47.37 5.17992 48.33 4.78992 49.24 4.60992V7.02992C48.27 7.22992 47.44 7.43993 46.74 7.65993L46.38 7.77992V13.7799L43.98 13.7899ZM35.15 5.83992C35.79 5.01992 36.85 4.60992 38.35 4.60992C39.83 4.60992 40.89 5.01992 41.53 5.83992C42.16 6.65992 42.48 7.80992 42.48 9.28992C42.48 12.4299 41.1 13.9999 38.34 13.9999C35.58 13.9999 34.2 12.4299 34.2 9.28992C34.2 7.80992 34.52 6.65992 35.15 5.83992ZM37.02 11.3099C37.26 11.7399 37.71 11.9499 38.34 11.9499C38.98 11.9499 39.42 11.7399 39.67 11.3099C39.91 10.8799 40.03 10.2099 40.03 9.28992C40.03 8.36992 39.91 7.68992 39.67 7.28992C39.42 6.85992 38.97 6.65993 38.34 6.65993C37.71 6.65993 37.26 6.85992 37.02 7.27992C36.7307 7.90493 36.6034 8.59276 36.65 9.27992C36.65 10.1999 36.77 10.8799 37.02 11.3099ZM31.42 6.86993V13.7899H29.02V4.42992C29.02 3.13992 29.21 2.24993 29.59 1.75993C29.98 1.26993 30.66 1.02992 31.64 1.02992C32.08 1.02992 32.64 1.08992 33.32 1.20992L33.7 1.25993L33.66 3.20992L32.33 3.17992C31.97 3.17992 31.73 3.27992 31.61 3.46992C31.49 3.65992 31.43 3.98992 31.43 4.44992V4.82993H33.61V6.86993H31.42ZM27.4 5.77992H24.39V10.2099C24.39 11.3699 24.47 12.1299 24.64 12.4899C24.81 12.8499 25.2 13.0299 25.83 13.0299L27.49 12.8999L27.56 13.8199C26.76 13.9299 26.16 13.9999 25.74 13.9999C24.83 13.9999 24.19 13.7699 23.84 13.3199C23.49 12.8699 23.31 12.0199 23.31 10.7499V1.99992H24.39V4.81992H27.39L27.4 5.77992ZM18.72 5.77992V13.7799H17.64V3.90993C17.64 2.64993 17.81 1.78992 18.16 1.33992C18.51 0.88992 19.12 0.669922 20.01 0.669922L21.76 0.759926V1.66992L20.17 1.63992C19.61 1.63992 19.23 1.78992 19.02 2.09992C18.82 2.40992 18.72 3.01992 18.72 3.92992V4.82993H21.44V5.77992H18.72ZM8.21002 9.28992C8.21002 7.60992 8.50001 6.40992 9.07001 5.70992C9.64001 5.00992 10.61 4.64993 11.98 4.64993C13.36 4.64993 14.33 4.99992 14.9 5.70992C15.47 6.40992 15.75 7.60992 15.75 9.28992C15.75 10.9699 15.49 12.1799 14.97 12.8899C14.45 13.6099 13.46 13.9699 11.99 13.9699C10.53 13.9699 9.53 13.6099 9 12.8899C8.47 12.1799 8.21002 10.9699 8.21002 9.28992ZM9.33002 9.25993C9.33002 10.6799 9.49002 11.6599 9.83002 12.1999C10.15 12.7499 10.87 13.0199 11.98 13.0199C13.09 13.0199 13.82 12.7399 14.15 12.1899C14.49 11.6399 14.65 10.6699 14.65 9.25993C14.65 7.85993 14.47 6.89992 14.09 6.37992C13.71 5.85992 13.01 5.59992 11.99 5.59992C10.97 5.59992 10.27 5.85993 9.89001 6.36993C9.52001 6.87993 9.33002 7.84992 9.33002 9.26992V9.25993ZM3.22998 5.62992C1.80998 5.62992 1.09998 6.13993 1.09998 7.15993C1.09998 7.61993 1.25001 7.95992 1.57001 8.13992C1.87001 8.33992 2.57999 8.51992 3.67999 8.70992C4.77999 8.88992 5.55 9.14993 6 9.46992C6.45 9.78992 6.67999 10.4099 6.67999 11.3199C6.67999 12.2399 6.37999 12.9099 5.79999 13.3299C5.19999 13.7599 4.35001 13.9699 3.20001 13.9699C2.55001 13.9699 1.70002 13.8799 0.650024 13.7199L0.130005 13.6399L0.200012 12.6899C1.54001 12.8899 2.56999 12.9999 3.29999 12.9999C4.01999 12.9999 4.57998 12.8699 4.97998 12.6199C5.37998 12.3699 5.58002 11.9499 5.58002 11.3499C5.58002 10.7499 5.42002 10.3499 5.08002 10.1499C4.40623 9.85929 3.69074 9.67704 2.96002 9.60992C2.15185 9.53818 1.36796 9.29621 0.659973 8.89993C0.219973 8.58993 0 7.99992 0 7.13992C0 6.27992 0.299983 5.64993 0.919983 5.25993C1.60198 4.84291 2.39102 4.63436 3.19 4.65993C3.91 4.65993 4.81001 4.73993 5.89001 4.89993L6.37 4.96992L6.34003 5.91992C5.05003 5.72992 4.01997 5.62992 3.21997 5.62992" fill="#434F8B"/>
</svg>
